<?xml version="1.0"?>
<svg xmlns="http://www.w3.org/2000/svg" xmlns:xlink="http://www.w3.org/1999/xlink" version="1.1" viewBox="0 0 192 192" width="24px" height="24px"><g fill="none" fill-rule="nonzero" stroke="none" stroke-width="1" stroke-linecap="butt" stroke-linejoin="miter" stroke-miterlimit="10" stroke-dasharray="" stroke-dashoffset="0" font-family="none" font-weight="none" font-size="none" text-anchor="none" style="mix-blend-mode: normal"><path d="M0,192v-192h192v192z" fill="none"/><g fill="#9b59b6"><path d="M48,16c-8.824,0 -16,7.176 -16,16v128c0,8.824 7.176,16 16,16h54.65625l6.54688,-6.57813l9.01562,-9.10938l-0.3125,-0.3125h-69.90625v-128h56v40h40v46.23438l8,8.0625l8,-8.0625v-54.23438l-48,-48zM131.23438,128.07813l-11.23438,11.3125l20.76562,20.92187l-20.20313,20.37501l11.21875,11.3125l20.21875,-20.375l20.21875,20.375l11.21875,-11.3125l-20.20313,-20.37501l20.76562,-20.92187l-11.23438,-11.3125l-20.76562,20.92187z"/></g></g></svg>
