<?xml version="1.0"?>
<svg xmlns="http://www.w3.org/2000/svg" xmlns:xlink="http://www.w3.org/1999/xlink" version="1.1" viewBox="0 0 192 192" width="24px" height="24px"><g fill="none" fill-rule="nonzero" stroke="none" stroke-width="1" stroke-linecap="butt" stroke-linejoin="miter" stroke-miterlimit="10" stroke-dasharray="" stroke-dashoffset="0" font-family="none" font-weight="none" font-size="none" text-anchor="none" style="mix-blend-mode: normal"><path d="M0,192v-192h192v192z" fill="none"/><g fill="#9b59b6"><path d="M48,16c-8.8,0 -16,7.2 -16,16v128c0,8.8 7.2,16 16,16h89.375l-16,-16h-73.375v-128h56v40h40v33.375l16,16v-57.375l-48,-48zM120,120v16l41.17187,41.17187l16,-16l-41.17187,-41.17187zM182.82813,166.82813l-16,16l8,8c1.56,1.56 4.09625,1.56 5.65625,0l10.34375,-10.34375c1.56,-1.568 1.56,-4.09625 0,-5.65625z"/></g></g></svg>
