<?xml version="1.0"?>
<svg xmlns="http://www.w3.org/2000/svg" xmlns:xlink="http://www.w3.org/1999/xlink" version="1.1" viewBox="0 0 192 192" width="24px" height="24px"><g fill="none" fill-rule="nonzero" stroke="none" stroke-width="1" stroke-linecap="butt" stroke-linejoin="miter" stroke-miterlimit="10" stroke-dasharray="" stroke-dashoffset="0" font-family="none" font-weight="none" font-size="none" text-anchor="none" style="mix-blend-mode: normal"><path d="M0,192v-192h192v192z" fill="none"/><g fill="#9b59b6"><path d="M88,16v8h-40c-8.824,0 -16,7.176 -16,16v120c0,8.824 7.176,16 16,16h62.0625l-16,-16h-46.0625v-120h40v8h16v-8h40v102.0625l16,-16v-86.0625c0,-8.824 -7.176,-16 -16,-16h-40v-8zM96,72c-8.83656,0 -16,7.16344 -16,16c0,8.83656 7.16344,16 16,16c8.83656,0 16,-7.16344 16,-16c0,-8.83656 -7.16344,-16 -16,-16zM96,112c-17.48,0 -32,7.27038 -32,17.73438v6.26562h64v-6.26562c0,-10.464 -14.52,-17.73438 -32,-17.73438zM178.34375,130.34375l-34.34375,34.34375l-18.34375,-18.34375l-11.3125,11.3125l29.65625,29.65625l45.65625,-45.65625z"/></g></g></svg>
