<?xml version="1.0"?>
<svg xmlns="http://www.w3.org/2000/svg" xmlns:xlink="http://www.w3.org/1999/xlink" version="1.1" viewBox="0 0 192 192" width="24px" height="24px"><g fill="none" fill-rule="nonzero" stroke="none" stroke-width="1" stroke-linecap="butt" stroke-linejoin="miter" stroke-miterlimit="10" stroke-dasharray="" stroke-dashoffset="0" font-family="none" font-weight="none" font-size="none" text-anchor="none" style="mix-blend-mode: normal"><path d="M0,192v-192h192v192z" fill="none"/><g fill="#9b59b6"><path d="M48,16c-8.824,0 -16,7.176 -16,16v128c0,8.824 7.176,16 16,16h53.46875c-2.368,-4.976 -4.02013,-10.344 -4.82813,-16h-48.64062v-128h56v40h40v24.625c2.616,-0.376 5.28,-0.64062 8,-0.64062c2.72,0 5.384,0.26462 8,0.64062v-32.625l-48,-48zM152,112c-22,0 -40,18 -40,40c0,22 18,40 40,40c22,0 40,-18 40,-40c0,-22 -18,-40 -40,-40zM152,136l24,24h-48z"/></g></g></svg>
